# xmcd
#
# Track frame offsets: 
#        150
#        16765
#        33365
#        49595
#
# Disc length: 938 seconds
#
# Revision: 8
# Processed by: cddbd v1.5.2PL0 Copyright (c) Steve Scherf et al.
# Submitted via: ExactAudioCopy v1.3
#
DISCID=2203a804
DTITLE=P.M. Dawn feat. Ky-Mani - Gotta Be...Movin' On Up
DYEAR=1997
DGENRE=Hip-Hop
TTITLE0=Gotta Be...Movin' On Up
TTITLE1=Gotta Be...Movin' On Up (Instrumental)
TTITLE2=Gotta Be...Movin' On Up (Accapella)
TTITLE3=Perfect
EXTD=
EXTT0=
EXTT1=
EXTT2=
EXTT3=
PLAYORDER=
